<?xml version="1.0" encoding="UTF-8"?>
<svg id="Layer_2" data-name="Layer 2" xmlns="http://www.w3.org/2000/svg" viewBox="0 0 257.86 184.25">
  <defs>
    <style>
      .cls-1 {
        font-size: 31.78px;
      }

      .cls-1, .cls-2, .cls-3 {
        fill: #fff;
      }

      .cls-1, .cls-3 {
        font-family: Rubik-Medium, Rubik;
        font-weight: 500;
      }

      .cls-4 {
        letter-spacing: -.02em;
      }

      .cls-3 {
        font-size: 21.19px;
        letter-spacing: .2em;
      }

      .cls-5 {
        letter-spacing: 0em;
      }

      .cls-6 {
        letter-spacing: 0em;
      }

      .cls-7 {
        letter-spacing: 0em;
      }

      .cls-8 {
        letter-spacing: 0em;
      }
    </style>
  </defs>
  <g id="Logo_White_variation" data-name="Logo White variation">
    <path class="cls-2" d="M144.51,15.94c0,8.81-7.14,15.94-15.94,15.94s-15.94-7.13-15.94-15.94,7.14-15.94,15.94-15.94,15.94,7.14,15.94,15.94ZM167.07,70.94l33.88-33.88-22.55-22.55-49.83,49.83L78.74,14.5l-22.54,22.55,33.88,33.88h-48.12v31.89h71.03c0-2.61.63-5.07,1.74-7.25,2.64-5.17,8.01-8.7,14.21-8.7s11.25,3.32,13.96,8.23c.74,1.34,1.29,2.8,1.63,4.34.24,1.08.36,2.22.36,3.37h71.03v-31.89h-48.84Z"/>
    <text class="cls-1" transform="translate(0 146.81)"><tspan x="0" y="0">P</tspan><tspan class="cls-8" x="20.94" y="0">R</tspan><tspan x="42.27" y="0">OJ</tspan><tspan class="cls-5" x="85.07" y="0">E</tspan><tspan x="104.65" y="0">C</tspan><tspan class="cls-4" x="126.39" y="0">T</tspan><tspan x="144.85" y="0"> </tspan><tspan class="cls-6" x="152.13" y="0">B</tspan><tspan class="cls-7" x="173.64" y="0">A</tspan><tspan x="195.35" y="0">SED</tspan></text>
    <text class="cls-3" transform="translate(29.68 178.3)"><tspan x="0" y="0">LEARNING LAB</tspan></text>
  </g>
</svg>